<mxfile host="app.diagrams.net" agent="Mozilla/5.0 (Windows NT 10.0; Win64; x64) AppleWebKit/537.36 (KHTML, like Gecko) Chrome/131.0.0.0 Safari/537.36" version="26.0.4">
  <diagram name="Page-1" id="xbqsqi2MSX0m9oso5nhK">
    <mxGraphModel dx="1114" dy="566" grid="0" gridSize="10" guides="1" tooltips="1" connect="1" arrows="1" fold="1" page="1" pageScale="1" pageWidth="827" pageHeight="1169" math="0" shadow="0">
      <root>
        <mxCell id="0" />
        <mxCell id="1" parent="0" />
        <mxCell id="Q_FvjP0hWmGXYuR4OuDE-1" value="" style="sketch=0;points=[[0,0,0],[0.25,0,0],[0.5,0,0],[0.75,0,0],[1,0,0],[0,1,0],[0.25,1,0],[0.5,1,0],[0.75,1,0],[1,1,0],[0,0.25,0],[0,0.5,0],[0,0.75,0],[1,0.25,0],[1,0.5,0],[1,0.75,0]];outlineConnect=0;fontColor=#232F3E;fillColor=#8C4FFF;strokeColor=#ffffff;dashed=0;verticalLabelPosition=bottom;verticalAlign=top;align=center;html=1;fontSize=12;fontStyle=0;aspect=fixed;shape=mxgraph.aws4.resourceIcon;resIcon=mxgraph.aws4.cloudfront;" vertex="1" parent="1">
          <mxGeometry x="282" y="171" width="58" height="58" as="geometry" />
        </mxCell>
        <mxCell id="Q_FvjP0hWmGXYuR4OuDE-2" value="" style="sketch=0;outlineConnect=0;fontColor=#232F3E;gradientColor=none;fillColor=#7AA116;strokeColor=none;dashed=0;verticalLabelPosition=bottom;verticalAlign=top;align=center;html=1;fontSize=12;fontStyle=0;aspect=fixed;pointerEvents=1;shape=mxgraph.aws4.bucket;" vertex="1" parent="1">
          <mxGeometry x="538" y="40" width="75" height="78" as="geometry" />
        </mxCell>
        <mxCell id="Q_FvjP0hWmGXYuR4OuDE-3" value="" style="sketch=0;points=[[0,0,0],[0.25,0,0],[0.5,0,0],[0.75,0,0],[1,0,0],[0,1,0],[0.25,1,0],[0.5,1,0],[0.75,1,0],[1,1,0],[0,0.25,0],[0,0.5,0],[0,0.75,0],[1,0.25,0],[1,0.5,0],[1,0.75,0]];outlineConnect=0;fontColor=#232F3E;fillColor=#C925D1;strokeColor=#ffffff;dashed=0;verticalLabelPosition=bottom;verticalAlign=top;align=center;html=1;fontSize=12;fontStyle=0;aspect=fixed;shape=mxgraph.aws4.resourceIcon;resIcon=mxgraph.aws4.codepipeline;" vertex="1" parent="1">
          <mxGeometry x="544" y="248" width="78" height="78" as="geometry" />
        </mxCell>
        <mxCell id="Q_FvjP0hWmGXYuR4OuDE-4" value="" style="dashed=0;outlineConnect=0;html=1;align=center;labelPosition=center;verticalLabelPosition=bottom;verticalAlign=top;shape=mxgraph.weblogos.github" vertex="1" parent="1">
          <mxGeometry x="549" y="442" width="75" height="75" as="geometry" />
        </mxCell>
        <mxCell id="Q_FvjP0hWmGXYuR4OuDE-5" value="" style="sketch=0;outlineConnect=0;fontColor=#232F3E;gradientColor=none;fillColor=#232F3D;strokeColor=none;dashed=0;verticalLabelPosition=bottom;verticalAlign=top;align=center;html=1;fontSize=12;fontStyle=0;aspect=fixed;pointerEvents=1;shape=mxgraph.aws4.user;" vertex="1" parent="1">
          <mxGeometry x="29" y="156" width="78" height="78" as="geometry" />
        </mxCell>
        <mxCell id="Q_FvjP0hWmGXYuR4OuDE-6" value="" style="endArrow=classic;html=1;rounded=0;strokeWidth=3;" edge="1" parent="1">
          <mxGeometry width="50" height="50" relative="1" as="geometry">
            <mxPoint x="107" y="191" as="sourcePoint" />
            <mxPoint x="271" y="189" as="targetPoint" />
          </mxGeometry>
        </mxCell>
        <mxCell id="Q_FvjP0hWmGXYuR4OuDE-7" value="" style="endArrow=classic;html=1;rounded=0;strokeWidth=3;" edge="1" parent="1">
          <mxGeometry width="50" height="50" relative="1" as="geometry">
            <mxPoint x="263" y="210" as="sourcePoint" />
            <mxPoint x="114" y="213" as="targetPoint" />
          </mxGeometry>
        </mxCell>
        <mxCell id="Q_FvjP0hWmGXYuR4OuDE-8" value="" style="endArrow=classic;html=1;rounded=0;strokeWidth=3;" edge="1" parent="1">
          <mxGeometry width="50" height="50" relative="1" as="geometry">
            <mxPoint x="349" y="187" as="sourcePoint" />
            <mxPoint x="529" y="86" as="targetPoint" />
          </mxGeometry>
        </mxCell>
        <mxCell id="Q_FvjP0hWmGXYuR4OuDE-9" value="" style="endArrow=classic;html=1;rounded=0;strokeWidth=3;" edge="1" parent="1">
          <mxGeometry width="50" height="50" relative="1" as="geometry">
            <mxPoint x="583" y="234" as="sourcePoint" />
            <mxPoint x="583" y="130" as="targetPoint" />
          </mxGeometry>
        </mxCell>
        <mxCell id="Q_FvjP0hWmGXYuR4OuDE-10" value="" style="endArrow=classic;html=1;rounded=0;strokeWidth=3;" edge="1" parent="1">
          <mxGeometry width="50" height="50" relative="1" as="geometry">
            <mxPoint x="587" y="332" as="sourcePoint" />
            <mxPoint x="587" y="429" as="targetPoint" />
          </mxGeometry>
        </mxCell>
        <mxCell id="Q_FvjP0hWmGXYuR4OuDE-11" value="User" style="text;html=1;align=center;verticalAlign=middle;resizable=0;points=[];autosize=1;strokeColor=none;fillColor=none;" vertex="1" parent="1">
          <mxGeometry x="46.5" y="234" width="43" height="26" as="geometry" />
        </mxCell>
        <mxCell id="Q_FvjP0hWmGXYuR4OuDE-12" value="CloudFront" style="text;html=1;align=center;verticalAlign=middle;resizable=0;points=[];autosize=1;strokeColor=none;fillColor=none;" vertex="1" parent="1">
          <mxGeometry x="275" y="229" width="77" height="26" as="geometry" />
        </mxCell>
        <mxCell id="Q_FvjP0hWmGXYuR4OuDE-13" value="S3 Bucket" style="text;html=1;align=center;verticalAlign=middle;resizable=0;points=[];autosize=1;strokeColor=none;fillColor=none;" vertex="1" parent="1">
          <mxGeometry x="538" y="11" width="73" height="26" as="geometry" />
        </mxCell>
        <mxCell id="Q_FvjP0hWmGXYuR4OuDE-14" value="Request" style="text;html=1;align=center;verticalAlign=middle;resizable=0;points=[];autosize=1;strokeColor=none;fillColor=none;" vertex="1" parent="1">
          <mxGeometry x="157" y="159" width="63" height="26" as="geometry" />
        </mxCell>
        <mxCell id="Q_FvjP0hWmGXYuR4OuDE-16" value="Request" style="text;html=1;align=center;verticalAlign=middle;resizable=0;points=[];autosize=1;strokeColor=none;fillColor=none;rotation=-30;" vertex="1" parent="1">
          <mxGeometry x="388" y="113" width="63" height="26" as="geometry" />
        </mxCell>
        <mxCell id="Q_FvjP0hWmGXYuR4OuDE-17" value="Response" style="text;html=1;align=center;verticalAlign=middle;resizable=0;points=[];autosize=1;strokeColor=none;fillColor=none;" vertex="1" parent="1">
          <mxGeometry x="152" y="210" width="72" height="26" as="geometry" />
        </mxCell>
        <mxCell id="Q_FvjP0hWmGXYuR4OuDE-19" value="Pull" style="text;html=1;align=center;verticalAlign=middle;resizable=0;points=[];autosize=1;strokeColor=none;fillColor=none;" vertex="1" parent="1">
          <mxGeometry x="592" y="360" width="38" height="26" as="geometry" />
        </mxCell>
        <mxCell id="Q_FvjP0hWmGXYuR4OuDE-20" value="CodePipline" style="text;html=1;align=center;verticalAlign=middle;resizable=0;points=[];autosize=1;strokeColor=none;fillColor=none;" vertex="1" parent="1">
          <mxGeometry x="461" y="274" width="83" height="26" as="geometry" />
        </mxCell>
        <mxCell id="Q_FvjP0hWmGXYuR4OuDE-21" value="GitHub Account" style="text;html=1;align=center;verticalAlign=middle;resizable=0;points=[];autosize=1;strokeColor=none;fillColor=none;" vertex="1" parent="1">
          <mxGeometry x="538" y="519" width="101" height="26" as="geometry" />
        </mxCell>
        <mxCell id="Q_FvjP0hWmGXYuR4OuDE-22" value="Deploy" style="text;html=1;align=center;verticalAlign=middle;resizable=0;points=[];autosize=1;strokeColor=none;fillColor=none;" vertex="1" parent="1">
          <mxGeometry x="588" y="171" width="55" height="26" as="geometry" />
        </mxCell>
      </root>
    </mxGraphModel>
  </diagram>
</mxfile>
